<?xml version="1.0" encoding="utf-8"?>
<!-- Generator: Adobe Illustrator 19.2.1, SVG Export Plug-In . SVG Version: 6.00 Build 0)  -->
<svg version="1.1" id="Layer_1" xmlns="http://www.w3.org/2000/svg" xmlns:xlink="http://www.w3.org/1999/xlink" x="0px" y="0px"
	 viewBox="0 0 20.2 20.2" style="enable-background:new 0 0 20.2 20.2;" xml:space="preserve">
<path d="M16,6.5c-1.3,0-3.4,1.3-5.7,3.4L10.1,10L9.9,9.8C8.8,8.9,6,6.5,4.2,6.5l0,0C1.9,6.5,0,8.3,0,10.7s1.9,4.1,4.1,4.1l0,0
	c1.3,0,3.4-1.3,5.7-3.4l0.2-0.1l0.2,0.1c2.3,2.1,4.5,3.4,5.7,3.4c2.3,0,4.1-1.9,4.1-4.1S18.3,6.5,16,6.5z M19.2,10.7
	c0,1.8-1.5,3.2-3.2,3.2c-1.5,0-4.5-2.5-5-3l-0.2-0.2l0.2-0.2c0.5-0.5,3.5-3,5-3C17.7,7.5,19.2,8.9,19.2,10.7z M4.1,13.8
	c-1.8,0-3.2-1.5-3.2-3.2c0-1.8,1.5-3.2,3.2-3.2l0,0c1.5,0,4.4,2.5,5,3l0.2,0.2l-0.2,0.2C8.6,11.4,5.6,13.8,4.1,13.8z M4.2,14.8
	L4.2,14.8L4.2,14.8L4.2,14.8z"/>
</svg>
